<svg width="119" height="35" viewBox="0 0 119 35" fill="none" xmlns="http://www.w3.org/2000/svg">
<path d="M12.2135 34.655C9.73675 34.655 7.56959 34.1548 5.71202 33.1545C3.88541 32.122 2.47676 30.67 1.48605 28.7985C0.495351 26.927 0 24.7167 0 22.1676C0 19.6185 0.495351 17.4243 1.48605 15.5851C2.47676 13.7458 3.88541 12.3422 5.71202 11.3742C7.56959 10.3739 9.73675 9.87376 12.2135 9.87376C13.6686 9.87376 15.1392 10.0996 16.6252 10.5514C18.1113 11.0031 19.3187 11.6485 20.2475 12.4874L18.297 17.5211C17.5231 16.8757 16.6562 16.3756 15.6964 16.0207C14.7367 15.6335 13.8079 15.4399 12.9101 15.4399C11.0835 15.4399 9.65935 16.0368 8.63769 17.2307C7.64699 18.3923 7.15163 20.0541 7.15163 22.216C7.15163 24.3456 7.64699 26.0235 8.63769 27.2496C9.65935 28.4435 11.0835 29.0405 12.9101 29.0405C13.777 29.0405 14.6903 28.863 15.65 28.5081C16.6407 28.1531 17.5231 27.6369 18.297 26.9592L20.2475 31.9929C19.3187 32.8319 18.1113 33.4934 16.6252 33.9774C15.1392 34.4291 13.6686 34.655 12.2135 34.655Z" fill="#BCBFF2"/>
<path d="M30.9093 34.655C29.2065 34.655 27.705 34.3162 26.4047 33.6386C25.1044 32.9609 24.0672 32.0413 23.2932 30.8797C22.5502 29.7181 22.1787 28.4113 22.1787 26.9592C22.1787 25.2491 22.6121 23.8777 23.479 22.8452C24.3459 21.8126 25.7545 21.0866 27.705 20.6671C29.6554 20.2154 32.2405 19.9895 35.4603 19.9895H37.1321V19.1667C37.1321 17.747 36.8225 16.7467 36.2033 16.1659C35.5841 15.5528 34.5315 15.2463 33.0455 15.2463C31.8071 15.2463 30.4913 15.456 29.0981 15.8755C27.7359 16.2627 26.3737 16.8596 25.0115 17.6663L23.1075 12.7778C23.9124 12.2293 24.8877 11.7291 26.0332 11.2774C27.2096 10.8256 28.4325 10.4868 29.7018 10.261C30.9712 10.0028 32.1786 9.87376 33.3241 9.87376C36.8535 9.87376 39.485 10.7127 41.2188 12.3906C42.9525 14.0362 43.8194 16.6015 43.8194 20.0863V34.1226H37.2714V30.5409C36.807 31.7993 36.0176 32.7996 34.903 33.5418C33.8195 34.2839 32.4882 34.655 30.9093 34.655ZM32.4882 29.7665C33.7885 29.7665 34.8876 29.2986 35.7854 28.3629C36.6832 27.4271 37.1321 26.2171 37.1321 24.7328V23.7648H35.5067C33.1229 23.7648 31.4356 23.9907 30.4449 24.4424C29.4542 24.8619 28.9588 25.604 28.9588 26.6688C28.9588 27.5723 29.2529 28.3145 29.8412 28.8953C30.4604 29.4761 31.3427 29.7665 32.4882 29.7665Z" fill="#BCBFF2"/>
<path d="M57.5487 34.655C54.6075 34.655 52.4558 33.8644 51.0936 32.2833C49.7314 30.67 49.0503 28.2822 49.0503 25.12V0H56.0626V24.8296C56.0626 27.411 57.1617 28.7017 59.3598 28.7017C59.7003 28.7017 60.0254 28.6855 60.335 28.6533C60.6756 28.621 61.0006 28.5565 61.3102 28.4597L61.2174 34.1226C60.0409 34.4775 58.818 34.655 57.5487 34.655Z" fill="#BCBFF2"/>
<path d="M73.0133 34.655C70.0721 34.655 67.9204 33.8644 66.5582 32.2833C65.196 30.67 64.5149 28.2822 64.5149 25.12V0H71.5272V24.8296C71.5272 27.411 72.6263 28.7017 74.8244 28.7017C75.165 28.7017 75.49 28.6855 75.7996 28.6533C76.1402 28.621 76.4653 28.5565 76.7749 28.4597L76.682 34.1226C75.5055 34.4775 74.2826 34.655 73.0133 34.655Z" fill="#BCBFF2"/>
<path d="M96.0351 5.62508C96.0351 8.62939 93.6983 11.0649 90.8158 11.0649C87.9332 11.0649 85.5964 8.62939 85.5964 5.62508C85.5964 2.62078 87.9332 0.185303 90.8158 0.185303C93.6983 0.185303 96.0351 2.62078 96.0351 5.62508Z" fill="#BCBFF2"/>
<path d="M119 5.62508C119 8.62939 116.663 11.0649 113.781 11.0649C110.898 11.0649 108.561 8.62939 108.561 5.62508C108.561 2.62078 110.898 0.185303 113.781 0.185303C116.663 0.185303 119 2.62078 119 5.62508Z" fill="#BCBFF2"/>
<path d="M115.242 17.5926C117.318 17.5926 119.042 19.3677 118.579 21.4763C118.371 22.4232 118.087 23.3524 117.729 24.2541C116.889 26.366 115.659 28.285 114.108 29.9014C112.557 31.5178 110.716 32.8001 108.69 33.6749C106.663 34.5497 104.492 34.9999 102.298 34.9999C100.105 34.9999 97.9331 34.5496 95.9067 33.6749C93.8804 32.8001 92.0392 31.5178 90.4883 29.9014C88.9374 28.285 87.7071 26.366 86.8678 24.2541C86.5094 23.3524 86.2254 22.4232 86.0174 21.4763C85.5544 19.3677 87.2789 17.5926 89.3543 17.5926H89.5049C91.4972 17.5926 93.0491 19.3381 93.8115 21.2564C94.2731 22.418 94.9498 23.4734 95.8028 24.3625C96.6558 25.2515 97.6684 25.9567 98.7829 26.4378C99.8974 26.919 101.092 27.1666 102.298 27.1666C103.505 27.1666 104.699 26.919 105.814 26.4378C106.928 25.9567 107.941 25.2515 108.794 24.3625C109.647 23.4734 110.323 22.418 110.785 21.2564C111.547 19.3381 113.099 17.5926 115.092 17.5926H115.242Z" fill="#BCBFF2"/>
</svg>
